<?xml version="1.0" encoding="UTF-8" standalone="no" ?>
<!DOCTYPE svg PUBLIC "-//W3C//DTD SVG 1.1//EN" "http://www.w3.org/Graphics/SVG/1.1/DTD/svg11.dtd">
<svg xmlns="http://www.w3.org/2000/svg" xmlns:xlink="http://www.w3.org/1999/xlink" version="1.1" width="1080" height="1080" viewBox="0 0 1080 1080" xml:space="preserve">
<desc>Created with Fabric.js 5.2.4</desc>
<defs>
</defs>
<g transform="matrix(1 0 0 1 540 540)" id="7ddc6611-cd7e-4d5f-8fd2-663fdc572bf4"  >
<rect style="stroke: none; stroke-width: 1; stroke-dasharray: none; stroke-linecap: butt; stroke-dashoffset: 0; stroke-linejoin: miter; stroke-miterlimit: 4; fill: rgb(255,255,255); fill-rule: nonzero; opacity: 1; visibility: hidden;" vector-effect="non-scaling-stroke"  x="-540" y="-540" rx="0" ry="0" width="1080" height="1080" />
</g>
<g transform="matrix(1 0 0 1 540 540)" id="16268b3e-77cb-4ed6-a2f4-8e682697e5ff"  >
</g>
<g transform="matrix(20.02 0 0 20.02 549.38 549.56)"  >
<g style="" vector-effect="non-scaling-stroke"   >
		<g transform="matrix(1 0 0 1 0.56 1.06)" id="rect3988"  >
<rect style="stroke: none; stroke-width: 1; stroke-dasharray: none; stroke-linecap: butt; stroke-dashoffset: 0; stroke-linejoin: miter; stroke-miterlimit: 4; fill: rgb(0,0,0); fill-rule: nonzero; opacity: 0.3;" vector-effect="non-scaling-stroke"  x="-25" y="-25" rx="8" ry="8" width="50" height="50" />
</g>
		<g transform="matrix(1 0 0 1 -1.06 -1.56)" id="rect3966"  >
<radialGradient id="SVGID_radialGradient3984_3" gradientUnits="userSpaceOnUse" gradientTransform="matrix(0.88 0 0 1 -517.89 -752.22)"  cx="584.38" cy="755.22" r="25" fx="584.38" fy="755.22">
<stop offset="0%" style="stop-color:rgb(255,255,255);stop-opacity: 1"/>
<stop offset="100%" style="stop-color:rgb(215,216,212);stop-opacity: 1"/>
</radialGradient>
<rect style="stroke: none; stroke-width: 1; stroke-dasharray: none; stroke-linecap: butt; stroke-dashoffset: 0; stroke-linejoin: miter; stroke-miterlimit: 4; fill: url(#SVGID_radialGradient3984_3); fill-rule: nonzero; opacity: 1;" vector-effect="non-scaling-stroke"  x="-24.5" y="-24.5" rx="8" ry="8" width="49" height="49" />
</g>
		<g transform="matrix(1 0 0 1 -1.06 -1.56)" id="rect4078"  >
<linearGradient id="SVGID_linearGradient4086_4" gradientUnits="userSpaceOnUse" gradientTransform="matrix(1 0 0 1 -588.43 -752.22)"  x1="589.87" y1="775.27" x2="589.87" y2="743.2">
<stop offset="0%" style="stop-color:rgb(0,0,0);stop-opacity: 1"/>
<stop offset="100%" style="stop-color:rgb(0,0,0);stop-opacity: 0"/>
</linearGradient>
<rect style="stroke: none; stroke-width: 1; stroke-dasharray: none; stroke-linecap: butt; stroke-dashoffset: 0; stroke-linejoin: miter; stroke-miterlimit: 4; fill: url(#SVGID_linearGradient4086_4); fill-rule: nonzero; opacity: 0.3;" vector-effect="non-scaling-stroke"  x="-24.5" y="-24.5" rx="8" ry="8" width="49" height="49" />
</g>
		<g transform="matrix(1 0 0 1 -1.06 -1.56)" id="path4076"  >
<path style="stroke: rgb(136,138,133); stroke-width: 1; stroke-dasharray: none; stroke-linecap: butt; stroke-dashoffset: 0; stroke-linejoin: miter; stroke-miterlimit: 4; fill: rgb(46,52,54); fill-rule: nonzero; opacity: 1;" vector-effect="non-scaling-stroke"  transform=" translate(-588.43, -752.22)" d="M 588.43 732.22 C 577.338 732.22 568.43 741.2513 568.43 752.2280000000001 C 568.43 763.2047000000001 577.3376 772.22 588.43 772.22 C 599.5224 772.22 608.43 763.2044000000001 608.43 752.2280000000001 C 608.43 741.2510000000001 599.5224 732.22 588.43 732.22 z M 588.43 735.1342000000001 C 597.7243 735.1342000000001 605.328 742.7138000000001 605.328 752.2282000000001 C 605.328 759.9637000000001 600.2967 766.4102000000001 593.418 768.5542000000002 L 593.418 763.1488000000002 C 593.418 761.4648000000002 592.79876 759.9598000000002 591.8124 758.9498000000002 L 592.71653 758.9498000000002 C 596.6960300000001 758.9498000000002 599.90283 755.7267000000002 599.90283 751.7269000000002 L 599.90283 749.8154000000002 C 599.90283 747.7480000000002 599.03463 745.8961000000002 597.65813 744.5823000000001 L 597.65813 740.2893000000001 L 593.5895300000001 742.6551000000002 C 593.3021000000001 742.6202000000002 593.01367 742.5925000000002 592.71657 742.5925000000002 L 585.03147 742.5925000000002 C 584.43295 742.5925000000002 583.85627 742.6745000000002 583.30117 742.8118400000002 L 578.95197 740.2893400000002 L 578.95197 745.9767400000002 C 578.25847 747.0880400000002 577.8451699999999 748.4013400000002 577.8451699999999 749.8153400000002 L 577.8451699999999 751.7268400000003 C 577.8451699999999 755.7265400000002 581.05197 758.9497400000002 585.0314699999999 758.9497400000002 L 585.8420799999999 758.9497400000002 C 585.0191399999999 759.7960300000002 584.4614799999999 760.9946400000002 584.2987799999999 762.3496400000002 C 580.8862799999998 763.6618400000002 580.3112799999999 759.6459400000002 575.9589799999999 759.0437400000003 C 581.1603799999999 763.2928400000003 578.5610799999998 764.4396400000003 584.2364799999999 764.7311400000003 L 584.2364799999999 768.7891400000003 C 576.9548799999999 766.9117400000003 571.5314799999999 760.2611400000003 571.5314799999999 752.2281400000003 C 571.5314799999999 742.7141400000003 579.1350799999999 735.1341400000002 588.4294799999999 735.1341400000002 z M 589.0223599999999 761.8482000000001 C 589.2987199999999 761.8482000000001 589.5211899999999 764.3079000000001 589.5211899999999 767.3633000000001 L 589.5211899999999 768.4757000000001 C 589.5211899999999 768.7600600000001 589.5095899999999 769.0139600000001 589.50559 769.2747600000001 C 589.1831 769.2954600000002 588.8661 769.3195600000001 588.53912 769.3218600000001 C 588.52912 769.0461300000002 588.5235200000001 768.7768500000001 588.5235200000001 768.4758000000002 L 588.5235200000001 767.3634000000002 C 588.5235200000001 764.3080000000002 588.7459900000001 761.8483000000002 589.0223400000001 761.8483000000002 z M 586.4346599999999 762.2555800000001 C 586.7110099999999 762.2555800000001 586.9334799999999 764.7152800000001 586.9334799999999 767.7706800000001 L 586.9334799999999 768.8674800000001 C 586.9334799999999 769.0012300000001 586.9354799999999 769.1200200000001 586.9334799999999 769.2435100000001 C 586.5983699999999 769.2140100000001 586.26519 769.1829100000001 585.9358299999999 769.1338600000001 C 585.9348699999999 769.0451600000001 585.9358299999999 768.9622600000001 585.9358299999999 768.8675000000002 L 585.9358299999999 767.7708000000001 C 585.9358299999999 764.7154000000002 586.1582999999999 762.2557000000002 586.4346599999999 762.2557000000002 z M 591.4229599999999 762.2555800000001 C 591.6993199999998 762.2555800000001 591.9217899999999 764.7152800000001 591.9217899999999 767.7706800000001 L 591.9217899999999 768.8674800000001 C 591.9217899999999 768.8953800000002 591.9219399999998 768.9185800000001 591.9217899999999 768.9457800000001 C 591.5914099999999 769.0159800000001 591.2611399999998 769.0676200000001 590.9241299999999 769.1181300000002 C 590.9231799999999 769.0342300000002 590.9241299999999 768.9566200000002 590.9241299999999 768.8674400000002 L 590.9241299999999 767.7706400000002 C 590.9241299999999 764.7152400000002 591.1466099999999 762.2555400000002 591.4229599999999 762.2555400000002 z" stroke-linecap="round" />
</g>
		<g transform="matrix(1 0 0 1 -1.06 -0.56)" id="path3986"  >
<path style="stroke: none; stroke-width: 1; stroke-dasharray: none; stroke-linecap: butt; stroke-dashoffset: 0; stroke-linejoin: miter; stroke-miterlimit: 4; fill: rgb(255,255,255); fill-rule: nonzero; opacity: 0.5;" vector-effect="non-scaling-stroke"  transform=" translate(-588.43, -753.22)" d="M 588.43 733.22 C 577.338 733.22 568.43 742.2513 568.43 753.2280000000001 C 568.43 764.2047000000001 577.3376 773.22 588.43 773.22 C 599.5224 773.22 608.43 764.2044000000001 608.43 753.2280000000001 C 608.43 742.2510000000001 599.5224 733.22 588.43 733.22 z M 588.43 736.1342000000001 C 597.7243 736.1342000000001 605.328 743.7138000000001 605.328 753.2282000000001 C 605.328 760.9637000000001 600.2967 767.4102000000001 593.418 769.5542000000002 L 593.418 764.1488000000002 C 593.418 762.4648000000002 592.79876 760.9598000000002 591.8124 759.9498000000002 L 592.71653 759.9498000000002 C 596.6960300000001 759.9498000000002 599.90283 756.7267000000002 599.90283 752.7269000000002 L 599.90283 750.8154000000002 C 599.90283 748.7480000000002 599.03463 746.8961000000002 597.65813 745.5823000000001 L 597.65813 741.2893000000001 L 593.5895300000001 743.6551000000002 C 593.3021000000001 743.6202000000002 593.01367 743.5925000000002 592.71657 743.5925000000002 L 585.03147 743.5925000000002 C 584.43295 743.5925000000002 583.85627 743.6745000000002 583.30117 743.8118400000002 L 578.95197 741.2893400000002 L 578.95197 746.9767400000002 C 578.25847 748.0880400000002 577.8451699999999 749.4013400000002 577.8451699999999 750.8153400000002 L 577.8451699999999 752.7268400000003 C 577.8451699999999 756.7265400000002 581.05197 759.9497400000002 585.0314699999999 759.9497400000002 L 585.8420799999999 759.9497400000002 C 585.0191399999999 760.7960300000002 584.4614799999999 761.9946400000002 584.2987799999999 763.3496400000002 C 580.8862799999998 764.6618400000002 580.3112799999999 760.6459400000002 575.9589799999999 760.0437400000003 C 581.1603799999999 764.2928400000003 578.5610799999998 765.4396400000003 584.2364799999999 765.7311400000003 L 584.2364799999999 769.7891400000003 C 576.9548799999999 767.9117400000003 571.5314799999999 761.2611400000003 571.5314799999999 753.2281400000003 C 571.5314799999999 743.7141400000003 579.1350799999999 736.1341400000002 588.4294799999999 736.1341400000002 z M 589.0223599999999 762.8482000000001 C 589.2987199999999 762.8482000000001 589.5211899999999 765.3079000000001 589.5211899999999 768.3633000000001 L 589.5211899999999 769.4757000000001 C 589.5211899999999 769.7600600000001 589.5095899999999 770.0139600000001 589.50559 770.2747600000001 C 589.1831 770.2954600000002 588.8661 770.3195600000001 588.53912 770.3218600000001 C 588.52912 770.0461300000002 588.5235200000001 769.7768500000001 588.5235200000001 769.4758000000002 L 588.5235200000001 768.3634000000002 C 588.5235200000001 765.3080000000002 588.7459900000001 762.8483000000002 589.0223400000001 762.8483000000002 z M 586.4346599999999 763.2555800000001 C 586.7110099999999 763.2555800000001 586.9334799999999 765.7152800000001 586.9334799999999 768.7706800000001 L 586.9334799999999 769.8674800000001 C 586.9334799999999 770.0012300000001 586.9354799999999 770.1200200000001 586.9334799999999 770.2435100000001 C 586.5983699999999 770.2140100000001 586.26519 770.1829100000001 585.9358299999999 770.1338600000001 C 585.9348699999999 770.0451600000001 585.9358299999999 769.9622600000001 585.9358299999999 769.8675000000002 L 585.9358299999999 768.7708000000001 C 585.9358299999999 765.7154000000002 586.1582999999999 763.2557000000002 586.4346599999999 763.2557000000002 z M 591.4229599999999 763.2555800000001 C 591.6993199999998 763.2555800000001 591.9217899999999 765.7152800000001 591.9217899999999 768.7706800000001 L 591.9217899999999 769.8674800000001 C 591.9217899999999 769.8953800000002 591.9219399999998 769.9185800000001 591.9217899999999 769.9457800000001 C 591.5914099999999 770.0159800000001 591.2611399999998 770.0676200000001 590.9241299999999 770.1181300000002 C 590.9231799999999 770.0342300000002 590.9241299999999 769.9566200000002 590.9241299999999 769.8674400000002 L 590.9241299999999 768.7706400000002 C 590.9241299999999 765.7152400000002 591.1466099999999 763.2555400000002 591.4229599999999 763.2555400000002 z" stroke-linecap="round" />
</g>
		<g transform="matrix(1 0 0 1 -1.06 -1.56)" id="path3162"  >
<path style="stroke: none; stroke-width: 1; stroke-dasharray: none; stroke-linecap: butt; stroke-dashoffset: 0; stroke-linejoin: miter; stroke-miterlimit: 4; fill: rgb(46,52,54); fill-rule: nonzero; opacity: 1;" vector-effect="non-scaling-stroke"  transform=" translate(-588.43, -752.22)" d="M 588.43 732.22 C 577.338 732.22 568.43 741.2513 568.43 752.2280000000001 C 568.43 763.2047000000001 577.3376 772.22 588.43 772.22 C 599.5224 772.22 608.43 763.2044000000001 608.43 752.2280000000001 C 608.43 741.2510000000001 599.5224 732.22 588.43 732.22 z M 588.43 735.1342000000001 C 597.7243 735.1342000000001 605.328 742.7138000000001 605.328 752.2282000000001 C 605.328 759.9637000000001 600.2967 766.4102000000001 593.418 768.5542000000002 L 593.418 763.1488000000002 C 593.418 761.4648000000002 592.79876 759.9598000000002 591.8124 758.9498000000002 L 592.71653 758.9498000000002 C 596.6960300000001 758.9498000000002 599.90283 755.7267000000002 599.90283 751.7269000000002 L 599.90283 749.8154000000002 C 599.90283 747.7480000000002 599.03463 745.8961000000002 597.65813 744.5823000000001 L 597.65813 740.2893000000001 L 593.5895300000001 742.6551000000002 C 593.3021000000001 742.6202000000002 593.01367 742.5925000000002 592.71657 742.5925000000002 L 585.03147 742.5925000000002 C 584.43295 742.5925000000002 583.85627 742.6745000000002 583.30117 742.8118400000002 L 578.95197 740.2893400000002 L 578.95197 745.9767400000002 C 578.25847 747.0880400000002 577.8451699999999 748.4013400000002 577.8451699999999 749.8153400000002 L 577.8451699999999 751.7268400000003 C 577.8451699999999 755.7265400000002 581.05197 758.9497400000002 585.0314699999999 758.9497400000002 L 585.8420799999999 758.9497400000002 C 585.0191399999999 759.7960300000002 584.4614799999999 760.9946400000002 584.2987799999999 762.3496400000002 C 580.8862799999998 763.6618400000002 580.3112799999999 759.6459400000002 575.9589799999999 759.0437400000003 C 581.1603799999999 763.2928400000003 578.5610799999998 764.4396400000003 584.2364799999999 764.7311400000003 L 584.2364799999999 768.7891400000003 C 576.9548799999999 766.9117400000003 571.5314799999999 760.2611400000003 571.5314799999999 752.2281400000003 C 571.5314799999999 742.7141400000003 579.1350799999999 735.1341400000002 588.4294799999999 735.1341400000002 z M 589.0223599999999 761.8482000000001 C 589.2987199999999 761.8482000000001 589.5211899999999 764.3079000000001 589.5211899999999 767.3633000000001 L 589.5211899999999 768.4757000000001 C 589.5211899999999 768.7600600000001 589.5095899999999 769.0139600000001 589.50559 769.2747600000001 C 589.1831 769.2954600000002 588.8661 769.3195600000001 588.53912 769.3218600000001 C 588.52912 769.0461300000002 588.5235200000001 768.7768500000001 588.5235200000001 768.4758000000002 L 588.5235200000001 767.3634000000002 C 588.5235200000001 764.3080000000002 588.7459900000001 761.8483000000002 589.0223400000001 761.8483000000002 z M 586.4346599999999 762.2555800000001 C 586.7110099999999 762.2555800000001 586.9334799999999 764.7152800000001 586.9334799999999 767.7706800000001 L 586.9334799999999 768.8674800000001 C 586.9334799999999 769.0012300000001 586.9354799999999 769.1200200000001 586.9334799999999 769.2435100000001 C 586.5983699999999 769.2140100000001 586.26519 769.1829100000001 585.9358299999999 769.1338600000001 C 585.9348699999999 769.0451600000001 585.9358299999999 768.9622600000001 585.9358299999999 768.8675000000002 L 585.9358299999999 767.7708000000001 C 585.9358299999999 764.7154000000002 586.1582999999999 762.2557000000002 586.4346599999999 762.2557000000002 z M 591.4229599999999 762.2555800000001 C 591.6993199999998 762.2555800000001 591.9217899999999 764.7152800000001 591.9217899999999 767.7706800000001 L 591.9217899999999 768.8674800000001 C 591.9217899999999 768.8953800000002 591.9219399999998 768.9185800000001 591.9217899999999 768.9457800000001 C 591.5914099999999 769.0159800000001 591.2611399999998 769.0676200000001 590.9241299999999 769.1181300000002 C 590.9231799999999 769.0342300000002 590.9241299999999 768.9566200000002 590.9241299999999 768.8674400000002 L 590.9241299999999 767.7706400000002 C 590.9241299999999 764.7152400000002 591.1466099999999 762.2555400000002 591.4229599999999 762.2555400000002 z" stroke-linecap="round" />
</g>
		<g transform="matrix(1 0 0 1 -1 -13.24)" id="rect4008"  >
<path style="stroke: none; stroke-width: 1; stroke-dasharray: none; stroke-linecap: butt; stroke-dashoffset: 0; stroke-linejoin: miter; stroke-miterlimit: 4; fill: rgb(255,255,255); fill-rule: nonzero; opacity: 0.2;" vector-effect="non-scaling-stroke"  transform=" translate(-588.49, -740.53)" d="M 571.55 728.22 C 567.6719999999999 728.22 564.55 731.342 564.55 735.22 L 564.55 752.845 L 612.425 752.845 L 612.425 735.22 C 612.425 731.342 609.303 728.22 605.425 728.22 L 571.55 728.22 z" stroke-linecap="round" />
</g>
		<g transform="matrix(1 0 0 1 -1.05 -2.51)" id="path4023"  >
<path style="stroke: none; stroke-width: 1; stroke-dasharray: none; stroke-linecap: butt; stroke-dashoffset: 0; stroke-linejoin: miter; stroke-miterlimit: 4; fill: rgb(0,0,0); fill-rule: nonzero; opacity: 0.62007;" vector-effect="non-scaling-stroke"  transform=" translate(-29, -28.05)" d="M 29 9 C 17.908 9 9 18.023 9 29 C 9 29.166 8.9959 29.335 9 29.5 C 9.2721 18.756 18.081 10 29 10 C 39.919 10 48.728 18.7563 49 29.5 C 49.0041 29.33476 49 29.16616 49 29 C 49 18.023 40.092 9 29 9 z M 19.5312 17.0625 L 19.5312 18.0625 L 23.875 20.5937 C 24.43 20.456699999999998 24.995 20.3757 25.594 20.3757 L 33.2815 20.3757 C 33.5786 20.3757 33.86907 20.403299999999998 34.1565 20.4382 L 38.219 18.0632 L 38.219 17.0632 L 34.1565 19.4382 C 33.86907 19.403299999999998 33.5786 19.3757 33.2815 19.3757 L 25.594 19.3757 C 24.99548 19.3757 24.430400000000002 19.45711 23.8752 19.59445 z M 38.2192 21.375 L 38.2192 22.375 C 39.5957 23.6888 40.4692 25.5264 40.4692 27.5938 L 40.4692 26.5938 C 40.4692 24.526400000000002 39.59574 22.6888 38.2192 21.375 z M 19.531200000000002 22.75 C 18.8377 23.8613 18.406200000000002 25.1798 18.406200000000002 26.5938 L 18.406200000000002 27.5938 C 18.406200000000002 26.1798 18.8377 24.8613 19.531200000000002 23.75 z M 12.125200000000003 29.563 C 12.121500000000003 29.710829999999998 12.093950000000003 29.851699999999997 12.093950000000003 30.0005 C 12.093950000000003 38.0334 17.531050000000004 44.6855 24.81295 46.5625 L 24.81295 45.5625 C 17.70205 43.7291 12.37195 37.3419 12.12495 29.5625 z M 45.87520000000001 29.563 C 45.63720000000001 37.046 40.71020000000001 43.253 34.00020000000001 45.345 L 34.00020000000001 46.345 C 40.87820000000001 44.201 45.906200000000005 37.736999999999995 45.906200000000005 30.000999999999998 C 45.906200000000005 29.852199999999996 45.87865000000001 29.711329999999997 45.874950000000005 29.563499999999998 z M 16.531200000000005 35.813 C 17.159910000000007 36.3266 17.664500000000004 36.8236 18.093700000000005 37.2505 C 21.079400000000007 38.431200000000004 21.923600000000004 41.260400000000004 24.874900000000004 40.1255 L 24.874900000000004 39.1255 C 21.462400000000002 40.4377 20.883500000000005 36.4152 16.531100000000002 35.813 z M 34.00020000000001 40.939 L 34.00020000000001 39.939 z M 30.094200000000008 45.251 C 30.094200000000008 45.53536 30.06695000000001 45.802699999999994 30.062950000000008 46.0635 C 29.74046000000001 46.084199999999996 29.421180000000007 46.09245 29.094200000000008 46.09475 L 29.094200000000008 46.251 C 29.094200000000008 46.552049999999994 29.084200000000006 46.819019999999995 29.094200000000008 47.09475 C 29.421180000000007 47.09245 29.74046000000001 47.084199999999996 30.062950000000008 47.0635 C 30.06695000000001 46.802699999999994 30.094200000000008 46.53536 30.094200000000008 46.251 z M 32.50020000000001 45.72 C 32.16982000000001 45.7902 31.837210000000006 45.856989999999996 31.500200000000007 45.9075 L 31.500200000000007 46.6575 C 31.500200000000007 46.74668 31.499250000000007 46.8236 31.500200000000007 46.9075 C 31.837210000000006 46.856989999999996 32.16982000000001 46.7902 32.50020000000001 46.72 C 32.500350000000005 46.6928 32.50020000000001 46.6854 32.50020000000001 46.6575 z M 26.500200000000007 45.9075 L 26.500200000000007 46.6575 C 26.500200000000007 46.75226 26.499240000000007 46.818799999999996 26.500200000000007 46.9075 C 26.829560000000008 46.95655 27.165090000000006 47.003 27.500200000000007 47.0325 C 27.502200000000006 46.90901 27.500200000000007 46.79125 27.500200000000007 46.6575 L 27.500200000000007 46.0325 C 27.165090000000006 46.003 26.829560000000008 45.95655 26.500200000000007 45.9075 z" stroke-linecap="round" />
</g>
		<g transform="matrix(1 0 0 1 -1.06 -1.56)" id="rect4013"  >
<linearGradient id="SVGID_linearGradient4094_5" gradientUnits="userSpaceOnUse" gradientTransform="matrix(1 0 0 1 -588.43 -752.22)"  x1="586.99" y1="725.78" x2="586.99" y2="778.28">
<stop offset="0%" style="stop-color:rgb(199,199,199);stop-opacity: 1"/>
<stop offset="100%" style="stop-color:rgb(117,117,117);stop-opacity: 1"/>
</linearGradient>
<rect style="stroke: url(#SVGID_linearGradient4094_5); stroke-width: 1; stroke-dasharray: none; stroke-linecap: butt; stroke-dashoffset: 0; stroke-linejoin: round; stroke-miterlimit: 4; fill: none; fill-rule: nonzero; opacity: 1;" vector-effect="non-scaling-stroke"  x="-24.5" y="-24.5" rx="8" ry="8" width="49" height="49" />
</g>
		<g transform="matrix(1 0 0 1 -1.06 -1.56)" id="rect3968"  >
<linearGradient id="SVGID_linearGradient3976_6" gradientUnits="userSpaceOnUse" gradientTransform="matrix(1 0 0 1 -588.43 -752.22)"  x1="584.43" y1="728.22" x2="584.43" y2="774.39">
<stop offset="0%" style="stop-color:rgb(255,255,255);stop-opacity: 1"/>
<stop offset="100%" style="stop-color:rgb(255,255,255);stop-opacity: 0"/>
</linearGradient>
<rect style="stroke: url(#SVGID_linearGradient3976_6); stroke-width: 1; stroke-dasharray: none; stroke-linecap: butt; stroke-dashoffset: 0; stroke-linejoin: round; stroke-miterlimit: 4; fill: none; fill-rule: nonzero; opacity: 0.58065;" vector-effect="non-scaling-stroke"  x="-23.5" y="-23.5" rx="7" ry="7" width="47" height="47" />
</g>
</g>
</g>
</svg>